<mxfile host="app.diagrams.net" modified="2024-02-02T17:12:44.433Z" agent="Mozilla/5.0 (Windows NT 10.0; Win64; x64) AppleWebKit/537.36 (KHTML, like Gecko) Chrome/121.0.0.0 Safari/537.36" etag="GzayyWAkvn-wFTQ2kQuJ" version="23.0.2" type="github">
  <diagram name="第 1 页" id="BO6Gz7mMQsJ_ugK7NcC3">
    <mxGraphModel dx="1434" dy="746" grid="1" gridSize="10" guides="1" tooltips="1" connect="1" arrows="1" fold="1" page="1" pageScale="1" pageWidth="827" pageHeight="1169" math="0" shadow="0">
      <root>
        <mxCell id="0" />
        <mxCell id="1" parent="0" />
        <mxCell id="hUMhWDQroe-k9b-sXjv9-1" value="" style="endArrow=none;dashed=1;html=1;rounded=0;" edge="1" parent="1">
          <mxGeometry width="50" height="50" relative="1" as="geometry">
            <mxPoint x="160" y="440" as="sourcePoint" />
            <mxPoint x="1080" y="440" as="targetPoint" />
          </mxGeometry>
        </mxCell>
        <mxCell id="hUMhWDQroe-k9b-sXjv9-2" value="" style="endArrow=none;dashed=1;html=1;rounded=0;" edge="1" parent="1">
          <mxGeometry width="50" height="50" relative="1" as="geometry">
            <mxPoint x="160" y="640" as="sourcePoint" />
            <mxPoint x="1080" y="640" as="targetPoint" />
          </mxGeometry>
        </mxCell>
        <mxCell id="hUMhWDQroe-k9b-sXjv9-3" value="认知层" style="text;html=1;strokeColor=none;fillColor=none;align=center;verticalAlign=middle;whiteSpace=wrap;rounded=0;fontSize=20;" vertex="1" parent="1">
          <mxGeometry x="40" y="330" width="110" height="30" as="geometry" />
        </mxCell>
        <mxCell id="hUMhWDQroe-k9b-sXjv9-4" value="交互层" style="text;html=1;strokeColor=none;fillColor=none;align=center;verticalAlign=middle;whiteSpace=wrap;rounded=0;fontSize=20;" vertex="1" parent="1">
          <mxGeometry x="40" y="530" width="110" height="30" as="geometry" />
        </mxCell>
        <mxCell id="hUMhWDQroe-k9b-sXjv9-5" value="动力层" style="text;html=1;strokeColor=none;fillColor=none;align=center;verticalAlign=middle;whiteSpace=wrap;rounded=0;fontSize=20;" vertex="1" parent="1">
          <mxGeometry x="40" y="720" width="110" height="30" as="geometry" />
        </mxCell>
        <mxCell id="hUMhWDQroe-k9b-sXjv9-89" style="edgeStyle=none;shape=connector;rounded=0;orthogonalLoop=1;jettySize=auto;html=1;entryX=0;entryY=0.5;entryDx=0;entryDy=0;labelBackgroundColor=default;strokeColor=default;align=center;verticalAlign=middle;fontFamily=Helvetica;fontSize=11;fontColor=default;endArrow=none;endFill=0;" edge="1" parent="1" source="hUMhWDQroe-k9b-sXjv9-9" target="hUMhWDQroe-k9b-sXjv9-39">
          <mxGeometry relative="1" as="geometry" />
        </mxCell>
        <mxCell id="hUMhWDQroe-k9b-sXjv9-9" value="多巴胺" style="rounded=1;whiteSpace=wrap;html=1;fillColor=#e1d5e7;strokeColor=#9673a6;" vertex="1" parent="1">
          <mxGeometry x="600" y="720" width="80" height="40" as="geometry" />
        </mxCell>
        <mxCell id="hUMhWDQroe-k9b-sXjv9-87" style="edgeStyle=none;shape=connector;rounded=0;orthogonalLoop=1;jettySize=auto;html=1;entryX=0.5;entryY=0;entryDx=0;entryDy=0;labelBackgroundColor=default;strokeColor=default;align=center;verticalAlign=middle;fontFamily=Helvetica;fontSize=11;fontColor=default;endArrow=none;endFill=0;exitX=0.5;exitY=1;exitDx=0;exitDy=0;" edge="1" parent="1" source="hUMhWDQroe-k9b-sXjv9-34" target="hUMhWDQroe-k9b-sXjv9-9">
          <mxGeometry relative="1" as="geometry" />
        </mxCell>
        <mxCell id="hUMhWDQroe-k9b-sXjv9-91" style="edgeStyle=none;shape=connector;rounded=0;orthogonalLoop=1;jettySize=auto;html=1;entryX=0.5;entryY=1;entryDx=0;entryDy=0;labelBackgroundColor=default;strokeColor=default;align=center;verticalAlign=middle;fontFamily=Helvetica;fontSize=11;fontColor=default;endArrow=none;endFill=0;exitX=0.5;exitY=0;exitDx=0;exitDy=0;" edge="1" parent="1" source="hUMhWDQroe-k9b-sXjv9-34" target="hUMhWDQroe-k9b-sXjv9-36">
          <mxGeometry relative="1" as="geometry" />
        </mxCell>
        <mxCell id="hUMhWDQroe-k9b-sXjv9-103" style="edgeStyle=none;shape=connector;rounded=0;orthogonalLoop=1;jettySize=auto;html=1;entryX=0.5;entryY=1;entryDx=0;entryDy=0;labelBackgroundColor=default;strokeColor=default;align=center;verticalAlign=middle;fontFamily=Helvetica;fontSize=11;fontColor=default;endArrow=none;endFill=0;exitX=0.5;exitY=0;exitDx=0;exitDy=0;" edge="1" parent="1" source="hUMhWDQroe-k9b-sXjv9-34" target="hUMhWDQroe-k9b-sXjv9-56">
          <mxGeometry relative="1" as="geometry" />
        </mxCell>
        <mxCell id="hUMhWDQroe-k9b-sXjv9-34" value="奖赏回路" style="rounded=1;whiteSpace=wrap;html=1;fillColor=#d5e8d4;strokeColor=#82b366;" vertex="1" parent="1">
          <mxGeometry x="840" y="520" width="80" height="40" as="geometry" />
        </mxCell>
        <mxCell id="hUMhWDQroe-k9b-sXjv9-94" style="edgeStyle=none;shape=connector;rounded=0;orthogonalLoop=1;jettySize=auto;html=1;entryX=0.5;entryY=1;entryDx=0;entryDy=0;labelBackgroundColor=default;strokeColor=default;align=center;verticalAlign=middle;fontFamily=Helvetica;fontSize=11;fontColor=default;endArrow=none;endFill=0;" edge="1" parent="1" source="hUMhWDQroe-k9b-sXjv9-36" target="hUMhWDQroe-k9b-sXjv9-67">
          <mxGeometry relative="1" as="geometry" />
        </mxCell>
        <mxCell id="hUMhWDQroe-k9b-sXjv9-36" value="动力" style="rounded=1;whiteSpace=wrap;html=1;fillColor=#dae8fc;strokeColor=#6c8ebf;" vertex="1" parent="1">
          <mxGeometry x="920" y="360" width="80" height="40" as="geometry" />
        </mxCell>
        <mxCell id="hUMhWDQroe-k9b-sXjv9-44" style="edgeStyle=none;shape=connector;rounded=0;orthogonalLoop=1;jettySize=auto;html=1;entryX=0.5;entryY=1;entryDx=0;entryDy=0;labelBackgroundColor=default;strokeColor=default;align=center;verticalAlign=middle;fontFamily=Helvetica;fontSize=11;fontColor=default;endArrow=none;endFill=0;" edge="1" parent="1" source="hUMhWDQroe-k9b-sXjv9-39" target="hUMhWDQroe-k9b-sXjv9-42">
          <mxGeometry relative="1" as="geometry" />
        </mxCell>
        <mxCell id="hUMhWDQroe-k9b-sXjv9-45" style="edgeStyle=none;shape=connector;rounded=0;orthogonalLoop=1;jettySize=auto;html=1;entryX=0.5;entryY=1;entryDx=0;entryDy=0;labelBackgroundColor=default;strokeColor=default;align=center;verticalAlign=middle;fontFamily=Helvetica;fontSize=11;fontColor=default;endArrow=none;endFill=0;" edge="1" parent="1" source="hUMhWDQroe-k9b-sXjv9-39" target="hUMhWDQroe-k9b-sXjv9-43">
          <mxGeometry relative="1" as="geometry" />
        </mxCell>
        <mxCell id="hUMhWDQroe-k9b-sXjv9-39" value="中脑-边缘通路" style="rounded=1;whiteSpace=wrap;html=1;fillColor=#e1d5e7;strokeColor=#9673a6;" vertex="1" parent="1">
          <mxGeometry x="884" y="760" width="80" height="40" as="geometry" />
        </mxCell>
        <mxCell id="hUMhWDQroe-k9b-sXjv9-46" style="edgeStyle=none;shape=connector;rounded=0;orthogonalLoop=1;jettySize=auto;html=1;entryX=0.5;entryY=1;entryDx=0;entryDy=0;labelBackgroundColor=default;strokeColor=default;align=center;verticalAlign=middle;fontFamily=Helvetica;fontSize=11;fontColor=default;endArrow=none;endFill=0;" edge="1" parent="1" source="hUMhWDQroe-k9b-sXjv9-42" target="hUMhWDQroe-k9b-sXjv9-34">
          <mxGeometry relative="1" as="geometry" />
        </mxCell>
        <mxCell id="hUMhWDQroe-k9b-sXjv9-42" value="腹侧被盖区" style="rounded=1;whiteSpace=wrap;html=1;fillColor=#e1d5e7;strokeColor=#9673a6;" vertex="1" parent="1">
          <mxGeometry x="830" y="680" width="80" height="40" as="geometry" />
        </mxCell>
        <mxCell id="hUMhWDQroe-k9b-sXjv9-47" style="edgeStyle=none;shape=connector;rounded=0;orthogonalLoop=1;jettySize=auto;html=1;entryX=0.5;entryY=1;entryDx=0;entryDy=0;labelBackgroundColor=default;strokeColor=default;align=center;verticalAlign=middle;fontFamily=Helvetica;fontSize=11;fontColor=default;endArrow=none;endFill=0;" edge="1" parent="1" source="hUMhWDQroe-k9b-sXjv9-43" target="hUMhWDQroe-k9b-sXjv9-34">
          <mxGeometry relative="1" as="geometry" />
        </mxCell>
        <mxCell id="hUMhWDQroe-k9b-sXjv9-43" value="伏隔核" style="rounded=1;whiteSpace=wrap;html=1;fillColor=#e1d5e7;strokeColor=#9673a6;" vertex="1" parent="1">
          <mxGeometry x="950" y="680" width="80" height="40" as="geometry" />
        </mxCell>
        <mxCell id="hUMhWDQroe-k9b-sXjv9-90" style="edgeStyle=none;shape=connector;rounded=0;orthogonalLoop=1;jettySize=auto;html=1;entryX=0.5;entryY=0;entryDx=0;entryDy=0;labelBackgroundColor=default;strokeColor=default;align=center;verticalAlign=middle;fontFamily=Helvetica;fontSize=11;fontColor=default;endArrow=none;endFill=0;exitX=0.5;exitY=1;exitDx=0;exitDy=0;" edge="1" parent="1" source="hUMhWDQroe-k9b-sXjv9-51" target="hUMhWDQroe-k9b-sXjv9-34">
          <mxGeometry relative="1" as="geometry" />
        </mxCell>
        <mxCell id="hUMhWDQroe-k9b-sXjv9-93" style="edgeStyle=none;shape=connector;rounded=0;orthogonalLoop=1;jettySize=auto;html=1;entryX=0.5;entryY=0;entryDx=0;entryDy=0;labelBackgroundColor=default;strokeColor=default;align=center;verticalAlign=middle;fontFamily=Helvetica;fontSize=11;fontColor=default;endArrow=none;endFill=0;exitX=0.5;exitY=1;exitDx=0;exitDy=0;" edge="1" parent="1" source="hUMhWDQroe-k9b-sXjv9-51" target="hUMhWDQroe-k9b-sXjv9-67">
          <mxGeometry relative="1" as="geometry" />
        </mxCell>
        <mxCell id="hUMhWDQroe-k9b-sXjv9-95" style="edgeStyle=none;shape=connector;rounded=0;orthogonalLoop=1;jettySize=auto;html=1;entryX=1;entryY=0.5;entryDx=0;entryDy=0;labelBackgroundColor=default;strokeColor=default;align=center;verticalAlign=middle;fontFamily=Helvetica;fontSize=11;fontColor=default;endArrow=none;endFill=0;exitX=0.5;exitY=1;exitDx=0;exitDy=0;" edge="1" parent="1" source="hUMhWDQroe-k9b-sXjv9-51" target="hUMhWDQroe-k9b-sXjv9-76">
          <mxGeometry relative="1" as="geometry" />
        </mxCell>
        <mxCell id="hUMhWDQroe-k9b-sXjv9-102" style="edgeStyle=none;shape=connector;rounded=0;orthogonalLoop=1;jettySize=auto;html=1;labelBackgroundColor=default;strokeColor=default;align=center;verticalAlign=middle;fontFamily=Helvetica;fontSize=11;fontColor=default;endArrow=none;endFill=0;exitX=0.5;exitY=1;exitDx=0;exitDy=0;" edge="1" parent="1" source="hUMhWDQroe-k9b-sXjv9-51" target="hUMhWDQroe-k9b-sXjv9-98">
          <mxGeometry relative="1" as="geometry" />
        </mxCell>
        <mxCell id="hUMhWDQroe-k9b-sXjv9-51" value="回报" style="rounded=1;whiteSpace=wrap;html=1;fillColor=#dae8fc;strokeColor=#6c8ebf;" vertex="1" parent="1">
          <mxGeometry x="550" y="130" width="80" height="40" as="geometry" />
        </mxCell>
        <mxCell id="hUMhWDQroe-k9b-sXjv9-58" style="edgeStyle=none;shape=connector;rounded=0;orthogonalLoop=1;jettySize=auto;html=1;entryX=0.5;entryY=0;entryDx=0;entryDy=0;labelBackgroundColor=default;strokeColor=default;align=center;verticalAlign=middle;fontFamily=Helvetica;fontSize=11;fontColor=default;endArrow=none;endFill=0;" edge="1" parent="1" source="hUMhWDQroe-k9b-sXjv9-55" target="hUMhWDQroe-k9b-sXjv9-56">
          <mxGeometry relative="1" as="geometry" />
        </mxCell>
        <mxCell id="hUMhWDQroe-k9b-sXjv9-104" style="edgeStyle=none;shape=connector;rounded=0;orthogonalLoop=1;jettySize=auto;html=1;labelBackgroundColor=default;strokeColor=default;align=center;verticalAlign=middle;fontFamily=Helvetica;fontSize=11;fontColor=default;endArrow=none;endFill=0;entryX=0.5;entryY=0;entryDx=0;entryDy=0;" edge="1" parent="1" source="hUMhWDQroe-k9b-sXjv9-55" target="hUMhWDQroe-k9b-sXjv9-34">
          <mxGeometry relative="1" as="geometry" />
        </mxCell>
        <mxCell id="hUMhWDQroe-k9b-sXjv9-55" value="提示" style="rounded=1;whiteSpace=wrap;html=1;fillColor=#dae8fc;strokeColor=#6c8ebf;" vertex="1" parent="1">
          <mxGeometry x="540" y="380" width="80" height="40" as="geometry" />
        </mxCell>
        <mxCell id="hUMhWDQroe-k9b-sXjv9-66" style="edgeStyle=none;shape=connector;rounded=0;orthogonalLoop=1;jettySize=auto;html=1;entryX=0;entryY=0.5;entryDx=0;entryDy=0;labelBackgroundColor=default;strokeColor=default;align=center;verticalAlign=middle;fontFamily=Helvetica;fontSize=11;fontColor=default;endArrow=none;endFill=0;" edge="1" parent="1" source="hUMhWDQroe-k9b-sXjv9-56" target="hUMhWDQroe-k9b-sXjv9-36">
          <mxGeometry relative="1" as="geometry" />
        </mxCell>
        <mxCell id="hUMhWDQroe-k9b-sXjv9-56" value="期望" style="rounded=1;whiteSpace=wrap;html=1;fillColor=#dae8fc;strokeColor=#6c8ebf;" vertex="1" parent="1">
          <mxGeometry x="630" y="330" width="80" height="40" as="geometry" />
        </mxCell>
        <mxCell id="hUMhWDQroe-k9b-sXjv9-63" style="edgeStyle=none;shape=connector;rounded=0;orthogonalLoop=1;jettySize=auto;html=1;entryX=0;entryY=0.5;entryDx=0;entryDy=0;labelBackgroundColor=default;strokeColor=default;align=center;verticalAlign=middle;fontFamily=Helvetica;fontSize=11;fontColor=default;endArrow=none;endFill=0;" edge="1" parent="1" source="hUMhWDQroe-k9b-sXjv9-62" target="hUMhWDQroe-k9b-sXjv9-34">
          <mxGeometry relative="1" as="geometry" />
        </mxCell>
        <mxCell id="hUMhWDQroe-k9b-sXjv9-65" style="edgeStyle=none;shape=connector;rounded=0;orthogonalLoop=1;jettySize=auto;html=1;entryX=0.5;entryY=1;entryDx=0;entryDy=0;labelBackgroundColor=default;strokeColor=default;align=center;verticalAlign=middle;fontFamily=Helvetica;fontSize=11;fontColor=default;endArrow=none;endFill=0;" edge="1" parent="1" source="hUMhWDQroe-k9b-sXjv9-62" target="hUMhWDQroe-k9b-sXjv9-56">
          <mxGeometry relative="1" as="geometry" />
        </mxCell>
        <mxCell id="hUMhWDQroe-k9b-sXjv9-88" style="edgeStyle=none;shape=connector;rounded=0;orthogonalLoop=1;jettySize=auto;html=1;entryX=0.5;entryY=0;entryDx=0;entryDy=0;labelBackgroundColor=default;strokeColor=default;align=center;verticalAlign=middle;fontFamily=Helvetica;fontSize=11;fontColor=default;endArrow=none;endFill=0;" edge="1" parent="1" source="hUMhWDQroe-k9b-sXjv9-62" target="hUMhWDQroe-k9b-sXjv9-9">
          <mxGeometry relative="1" as="geometry" />
        </mxCell>
        <mxCell id="hUMhWDQroe-k9b-sXjv9-62" value="奖赏预测误差效应" style="rounded=1;whiteSpace=wrap;html=1;fillColor=#d5e8d4;strokeColor=#82b366;" vertex="1" parent="1">
          <mxGeometry x="640" y="560" width="80" height="40" as="geometry" />
        </mxCell>
        <mxCell id="hUMhWDQroe-k9b-sXjv9-67" value="行动" style="rounded=1;whiteSpace=wrap;html=1;fillColor=#dae8fc;strokeColor=#6c8ebf;" vertex="1" parent="1">
          <mxGeometry x="760" y="240" width="80" height="40" as="geometry" />
        </mxCell>
        <mxCell id="hUMhWDQroe-k9b-sXjv9-72" value="享乐热点" style="rounded=1;whiteSpace=wrap;html=1;fillColor=#e1d5e7;strokeColor=#9673a6;" vertex="1" parent="1">
          <mxGeometry x="230" y="720" width="80" height="40" as="geometry" />
        </mxCell>
        <mxCell id="hUMhWDQroe-k9b-sXjv9-75" style="edgeStyle=none;shape=connector;rounded=0;orthogonalLoop=1;jettySize=auto;html=1;entryX=0.5;entryY=0;entryDx=0;entryDy=0;labelBackgroundColor=default;strokeColor=default;align=center;verticalAlign=middle;fontFamily=Helvetica;fontSize=11;fontColor=default;endArrow=none;endFill=0;" edge="1" parent="1" source="hUMhWDQroe-k9b-sXjv9-73" target="hUMhWDQroe-k9b-sXjv9-72">
          <mxGeometry relative="1" as="geometry" />
        </mxCell>
        <mxCell id="hUMhWDQroe-k9b-sXjv9-77" style="edgeStyle=none;shape=connector;rounded=0;orthogonalLoop=1;jettySize=auto;html=1;entryX=0.5;entryY=1;entryDx=0;entryDy=0;labelBackgroundColor=default;strokeColor=default;align=center;verticalAlign=middle;fontFamily=Helvetica;fontSize=11;fontColor=default;endArrow=none;endFill=0;" edge="1" parent="1" source="hUMhWDQroe-k9b-sXjv9-73" target="hUMhWDQroe-k9b-sXjv9-76">
          <mxGeometry relative="1" as="geometry" />
        </mxCell>
        <mxCell id="hUMhWDQroe-k9b-sXjv9-96" style="edgeStyle=none;shape=connector;rounded=0;orthogonalLoop=1;jettySize=auto;html=1;entryX=0.5;entryY=1;entryDx=0;entryDy=0;labelBackgroundColor=default;strokeColor=default;align=center;verticalAlign=middle;fontFamily=Helvetica;fontSize=11;fontColor=default;endArrow=none;endFill=0;" edge="1" parent="1" source="hUMhWDQroe-k9b-sXjv9-73" target="hUMhWDQroe-k9b-sXjv9-51">
          <mxGeometry relative="1" as="geometry" />
        </mxCell>
        <mxCell id="hUMhWDQroe-k9b-sXjv9-73" value="认知目标" style="rounded=1;whiteSpace=wrap;html=1;fillColor=#d5e8d4;strokeColor=#82b366;" vertex="1" parent="1">
          <mxGeometry x="280" y="520" width="80" height="40" as="geometry" />
        </mxCell>
        <mxCell id="hUMhWDQroe-k9b-sXjv9-76" value="快乐" style="rounded=1;whiteSpace=wrap;html=1;fillColor=#dae8fc;strokeColor=#6c8ebf;" vertex="1" parent="1">
          <mxGeometry x="240" y="320" width="80" height="40" as="geometry" />
        </mxCell>
        <mxCell id="hUMhWDQroe-k9b-sXjv9-97" style="edgeStyle=none;shape=connector;rounded=0;orthogonalLoop=1;jettySize=auto;html=1;exitX=0.5;exitY=1;exitDx=0;exitDy=0;entryX=0.25;entryY=1;entryDx=0;entryDy=0;labelBackgroundColor=default;strokeColor=default;align=center;verticalAlign=middle;fontFamily=Helvetica;fontSize=11;fontColor=default;endArrow=none;endFill=0;" edge="1" parent="1" source="hUMhWDQroe-k9b-sXjv9-56" target="hUMhWDQroe-k9b-sXjv9-56">
          <mxGeometry relative="1" as="geometry" />
        </mxCell>
        <mxCell id="hUMhWDQroe-k9b-sXjv9-99" style="edgeStyle=none;shape=connector;rounded=0;orthogonalLoop=1;jettySize=auto;html=1;entryX=0.5;entryY=0;entryDx=0;entryDy=0;labelBackgroundColor=default;strokeColor=default;align=center;verticalAlign=middle;fontFamily=Helvetica;fontSize=11;fontColor=default;endArrow=none;endFill=0;" edge="1" parent="1" source="hUMhWDQroe-k9b-sXjv9-98" target="hUMhWDQroe-k9b-sXjv9-9">
          <mxGeometry relative="1" as="geometry" />
        </mxCell>
        <mxCell id="hUMhWDQroe-k9b-sXjv9-100" style="edgeStyle=none;shape=connector;rounded=0;orthogonalLoop=1;jettySize=auto;html=1;entryX=0.5;entryY=1;entryDx=0;entryDy=0;labelBackgroundColor=default;strokeColor=default;align=center;verticalAlign=middle;fontFamily=Helvetica;fontSize=11;fontColor=default;endArrow=none;endFill=0;" edge="1" parent="1" source="hUMhWDQroe-k9b-sXjv9-98" target="hUMhWDQroe-k9b-sXjv9-55">
          <mxGeometry relative="1" as="geometry" />
        </mxCell>
        <mxCell id="hUMhWDQroe-k9b-sXjv9-98" value="上瘾" style="rounded=1;whiteSpace=wrap;html=1;fillColor=#d5e8d4;strokeColor=#82b366;" vertex="1" parent="1">
          <mxGeometry x="440" y="520" width="80" height="40" as="geometry" />
        </mxCell>
      </root>
    </mxGraphModel>
  </diagram>
</mxfile>
